<?xml version="1.0" encoding="UTF-8"?>
<svg version="1.1" xmlns="http://www.w3.org/2000/svg" width="500" height="500">
<path d="M0 0 C165 0 330 0 500 0 C500 165 500 330 500 500 C335 500 170 500 0 500 C0 335 0 170 0 0 Z " fill="#FEFEFE" transform="translate(0,0)"/>
<path d="M0 0 C0.75152344 -0.02900391 1.50304687 -0.05800781 2.27734375 -0.08789062 C3.01597656 -0.09626953 3.75460938 -0.10464844 4.515625 -0.11328125 C5.51770996 -0.13515503 5.51770996 -0.13515503 6.54003906 -0.1574707 C13.854245 1.39796969 19.40602252 8.68701529 24.42724609 13.73095703 C25.39322334 14.69422103 26.35962485 15.65705974 27.32641602 16.61950684 C29.93809581 19.22210496 32.54345342 21.83094572 35.14741468 24.44126368 C37.87503207 27.17395712 40.60753988 29.9017535 43.33926392 32.63034058 C47.92069656 37.20814073 52.49790894 41.79012881 57.07275391 46.37451172 C62.3666162 51.67928318 67.66768012 56.9767762 72.97249162 62.27059662 C77.52827263 66.81731529 82.08016177 71.36790266 86.62879241 75.92177474 C89.34519182 78.64129632 92.06293443 81.35943852 94.78419113 84.07410049 C97.33812941 86.62228035 99.88716159 89.17526662 102.43241882 91.7321167 C103.81742192 93.12104306 105.20737747 94.50502537 106.59744263 95.8888855 C107.41335876 96.71044128 108.2292749 97.53199707 109.06991577 98.37844849 C109.78480856 99.09409533 110.49970135 99.80974216 111.23625755 100.54707527 C112.75 102.3125 112.75 102.3125 112.75 104.3125 C113.41 104.3125 114.07 104.3125 114.75 104.3125 C114.75 104.9725 114.75 105.6325 114.75 106.3125 C115.41 106.3125 116.07 106.3125 116.75 106.3125 C116.75 106.9725 116.75 107.6325 116.75 108.3125 C117.348125 108.580625 117.94625 108.84875 118.5625 109.125 C120.8597636 110.37208595 122.27829405 111.14367019 123.75 113.3125 C123.48466152 118.56620185 121.34955023 121.79163527 118.125 125.75 C117.66770508 126.32202148 117.21041016 126.89404297 116.73925781 127.48339844 C115.42578427 129.10744701 114.09313346 130.71295016 112.75 132.3125 C111.89535156 133.34310547 111.89535156 133.34310547 111.0234375 134.39453125 C102.19910643 144.05604245 86.89897549 153.00829777 73.8711853 154.50338745 C69.68217392 154.1264144 67.3555613 151.01084328 64.625 148.06640625 C63.99263428 147.421306 63.36026855 146.77620575 62.70874023 146.11155701 C60.70033719 144.05290345 58.72551728 141.96518286 56.75 139.875 C55.39142556 138.47126923 54.03076914 137.06955028 52.66796875 135.66992188 C49.33739944 132.24029631 46.03660315 128.78425944 42.75 125.3125 C38.35637583 128.99291656 34.17129202 132.77719786 30.140625 136.859375 C29.40039093 137.605289 29.40039093 137.605289 28.64520264 138.36627197 C27.09429833 139.92922596 25.54674087 141.49542638 24 143.0625 C21.94561258 145.14352659 19.88789453 147.22117701 17.828125 149.296875 C16.92481445 150.21178711 16.02150391 151.12669922 15.09082031 152.06933594 C10.57185882 156.39977171 7.08035649 156.76310776 1.0625 156.875 C0.28455078 156.92462891 -0.49339844 156.97425781 -1.29492188 157.02539062 C-5.67253877 157.10206281 -8.4117997 156.61166875 -11.67578125 153.61303711 C-12.36983566 152.97546982 -13.06389008 152.33790253 -13.77897644 151.68101501 C-19.25984911 146.4275122 -24.66815263 141.10400256 -30.05078125 135.75 C-30.70165396 135.10320282 -31.35252666 134.45640564 -32.02312279 133.79000854 C-35.45951893 130.37434225 -38.89272293 126.95550313 -42.32348633 123.53417969 C-45.85676287 120.01201889 -49.40157456 116.5017041 -52.94901752 112.99382019 C-55.68806042 110.28093479 -58.41816776 107.55918871 -61.14595604 104.83499146 C-62.4490963 103.53670902 -63.75560148 102.24179468 -65.06557655 100.95040894 C-66.89615238 99.14423448 -68.7136309 97.32578012 -70.52856445 95.50390625 C-71.06625458 94.97902618 -71.6039447 94.45414612 -72.15792847 93.9133606 C-76.56849435 89.44122369 -79.65183392 84.36623202 -79.75 77.875 C-79.32034857 69.76333066 -73.36204195 63.97994478 -67.83911133 58.54516602 C-66.90649223 57.60948036 -66.90649223 57.60948036 -65.95503235 56.65489197 C-63.92119758 54.61807624 -61.87689909 52.59213998 -59.83203125 50.56640625 C-58.40848891 49.14592495 -56.98553959 47.72484913 -55.56315613 46.3032074 C-52.59295364 43.33759028 -49.61793014 40.37693118 -46.63891602 37.42016602 C-42.81530724 33.62496733 -39.00054885 29.8210253 -35.18889332 26.01382542 C-32.25639869 23.08547882 -29.3210838 20.15997418 -26.38471031 17.2355175 C-24.97639092 15.83290269 -23.56854373 14.42981359 -22.16117287 13.02624702 C-20.2009562 11.07287843 -18.23739539 9.12293991 -16.27270508 7.17407227 C-15.68930359 6.59178864 -15.1059021 6.009505 -14.50482178 5.40957642 C-9.57958979 0.53700779 -6.77957114 0.08545678 0 0 Z " fill="#9ACBFE" transform="translate(245.25,139.6875)"/>
<path d="M0 0 C3.13349687 1.39038759 5.25516164 3.0074226 7.66998291 5.42947388 C8.38227051 6.13901215 9.09455811 6.84855042 9.82843018 7.57958984 C10.98505157 8.74699707 10.98505157 8.74699707 12.16503906 9.93798828 C13.39486511 11.16737625 13.39486511 11.16737625 14.64953613 12.42160034 C17.35966624 15.13312432 20.06264248 17.85166492 22.765625 20.5703125 C24.64277429 22.4511917 26.520312 24.33167487 28.39837646 26.2116394 C32.83634406 30.65582026 37.26918925 35.10507422 41.70021415 39.55617607 C46.74583409 44.62415976 51.79714216 49.68645771 56.84893465 54.74828744 C67.23896097 65.15921229 77.62183072 75.57725506 88 86 C86.08546771 90.17561352 83.23818525 93.03299407 80.00390625 96.2265625 C79.41455795 96.81545258 78.82520966 97.40434265 78.21800232 98.01107788 C76.97379098 99.25227416 75.72715611 100.49104513 74.47827148 101.72753906 C72.56761734 103.61993157 70.66509193 105.52020912 68.76367188 107.421875 C67.55255423 108.62807717 66.34098093 109.83382203 65.12890625 111.0390625 C64.56007217 111.60678375 63.9912381 112.174505 63.40516663 112.75942993 C58.05324726 118.0473938 54.74053003 119.42438788 47.3125 119.5625 C46.53455078 119.61212891 45.75660156 119.66175781 44.95507812 119.71289062 C40.57746123 119.78956281 37.8382003 119.29916875 34.57421875 116.30053711 C33.88016434 115.66296982 33.18610992 115.02540253 32.47102356 114.36851501 C26.99015089 109.1150122 21.58184737 103.79150256 16.19921875 98.4375 C15.54834604 97.79070282 14.89747334 97.14390564 14.22687721 96.47750854 C10.79048107 93.06184225 7.35727707 89.64300313 3.92651367 86.22167969 C0.39323713 82.69951889 -3.15157456 79.1892041 -6.69901752 75.68132019 C-9.43806042 72.96843479 -12.16816776 70.24668871 -14.89595604 67.52249146 C-16.1990963 66.22420902 -17.50560148 64.92929468 -18.81557655 63.63790894 C-20.64615238 61.83173448 -22.4636309 60.01328012 -24.27856445 58.19140625 C-24.81625458 57.66652618 -25.3539447 57.14164612 -25.90792847 56.6008606 C-30.31849435 52.12872369 -33.40183392 47.05373202 -33.5 40.5625 C-33.06224889 32.35234248 -26.99880831 26.5577182 -21.38671875 21.09375 C-20.77230423 20.48358032 -20.15788971 19.87341064 -19.52485657 19.24475098 C-17.58607885 17.3225899 -15.63707319 15.41120432 -13.6875 13.5 C-12.36063346 12.18820228 -11.03445492 10.87570826 -9.70898438 9.5625 C-6.48054538 6.36690412 -3.24289775 3.1809194 0 0 Z " fill="#040D14" transform="translate(199,177)"/>
<path d="M0 0 C2.78825343 1.02278122 5.37738716 2.2335285 8 3.625 C8.69424072 3.98400391 9.38848145 4.34300781 10.10375977 4.71289062 C15.56238519 7.60849639 20.35116432 10.92207397 25 15 C25.73347656 15.58007812 26.46695313 16.16015625 27.22265625 16.7578125 C41.48221671 28.44918454 50.51329835 46.85454197 53 65 C53.932563 75.89569568 53.65017431 86.6099369 50 97 C49.59007812 98.16917969 49.18015625 99.33835937 48.7578125 100.54296875 C45.43080743 109.56919257 45.43080743 109.56919257 43 112 C41.76302083 110.47005208 40.52604167 108.94010417 39.2890625 107.41015625 C38.0333609 105.86733563 38.0333609 105.86733563 36 105 C36 104.34 36 103.68 36 103 C35.34 103 34.68 103 34 103 C34 102.34 34 101.68 34 101 C33.34 101 32.68 101 32 101 C30.78196716 99.76196289 30.78196716 99.76196289 29.27905273 97.91015625 C23.43083608 91.04071795 16.9223562 84.79963469 10.53515625 78.4375 C9.13246609 77.03667785 7.72999872 75.63563257 6.32774353 74.234375 C2.6590246 70.56945113 -1.01268878 66.90754192 -4.68505859 63.24627686 C-8.44095978 59.50065494 -12.19398711 55.75215587 -15.94726562 52.00390625 C-23.29538554 44.66647047 -30.6466758 37.33221995 -38 30 C-35.0804438 23.68788331 -29.62761742 19.02114486 -24.80786133 14.10766602 C-23.56253574 12.82917943 -22.32804354 11.54004892 -21.10473633 10.24047852 C-19.33206039 8.35803936 -17.52845481 6.51090021 -15.71484375 4.66796875 C-15.17697739 4.08476364 -14.63911102 3.50155853 -14.08494568 2.90068054 C-9.57055768 -1.56546762 -6.01929011 -1.62372845 0 0 Z " fill="#DAE4FE" transform="translate(326,143)"/>
<path d="M0 0 C0.75152344 -0.02900391 1.50304687 -0.05800781 2.27734375 -0.08789062 C3.01597656 -0.09626953 3.75460938 -0.10464844 4.515625 -0.11328125 C5.51770996 -0.13515503 5.51770996 -0.13515503 6.54003906 -0.1574707 C12.61647701 1.13474572 17.04248345 6.33220516 21.2421875 10.609375 C21.83299103 11.20300842 22.42379456 11.79664185 23.03250122 12.40826416 C24.90145382 14.28832987 26.76329541 16.1752596 28.625 18.0625 C29.89797243 19.34551368 31.17140545 20.62807055 32.4453125 21.91015625 C35.55222667 25.039013 38.65278675 28.17404134 41.75 31.3125 C40.25469676 34.80222003 38.25808338 37.04715395 35.57568359 39.71386719 C34.71494232 40.5744574 33.85420105 41.43504761 32.96737671 42.32171631 C32.03712677 43.24164368 31.10687683 44.16157104 30.1484375 45.109375 C29.18678914 46.06729097 28.22558306 47.02565114 27.26480103 47.98443604 C24.74076718 50.50085125 22.21078409 53.01120107 19.67950439 55.52032471 C17.0952081 58.08412441 14.51659801 60.65362918 11.9375 63.22265625 C6.88054303 68.25819457 1.81727744 73.2873456 -3.25 78.3125 C-8.64190397 73.8146065 -13.64391684 69.05123458 -18.58984375 64.0703125 C-19.35680069 63.30194061 -20.12375763 62.53356873 -20.91395569 61.74191284 C-23.3408474 59.30946491 -25.76422127 56.87354678 -28.1875 54.4375 C-29.84156486 52.77841448 -31.49585945 51.11955798 -33.15039062 49.4609375 C-37.18625433 45.41410291 -41.21924277 41.36442047 -45.25 37.3125 C-41.1521312 32.43100912 -36.90369621 27.81808388 -32.390625 23.3203125 C-31.76017273 22.6889035 -31.12972046 22.05749451 -30.48016357 21.4069519 C-29.16036645 20.08647955 -27.83932687 18.76724793 -26.51708984 17.44921875 C-24.488084 15.42561573 -22.46453038 13.39666904 -20.44140625 11.3671875 C-19.15396674 10.08040801 -17.86621749 8.79393834 -16.578125 7.5078125 C-15.67033295 6.5969841 -15.67033295 6.5969841 -14.74420166 5.66775513 C-9.68514853 0.63712365 -6.97888023 0.08796908 0 0 Z " fill="#40A6F6" transform="translate(245.25,139.6875)"/>
<path d="M0 0 C5.95982408 4.9489991 11.45942623 10.27609206 16.9375 15.75 C17.81212891 16.61238281 18.68675781 17.47476563 19.58789062 18.36328125 C20.41353516 19.18699219 21.23917969 20.01070312 22.08984375 20.859375 C22.84128662 21.60670898 23.59272949 22.35404297 24.36694336 23.12402344 C26 25 26 25 26 27 C26.66 27 27.32 27 28 27 C28 27.66 28 28.32 28 29 C28.66 29 29.32 29 30 29 C30 29.66 30 30.32 30 31 C30.598125 31.268125 31.19625 31.53625 31.8125 31.8125 C34.1097636 33.05958595 35.52829405 33.83117019 37 36 C36.73466152 41.25370185 34.59955023 44.47913527 31.375 48.4375 C30.91770508 49.00952148 30.46041016 49.58154297 29.98925781 50.17089844 C28.67578427 51.79494701 27.34313346 53.40045016 26 55 C25.43023437 55.68707031 24.86046875 56.37414062 24.2734375 57.08203125 C15.44910643 66.74354245 0.14897549 75.69579777 -12.8788147 77.19088745 C-17.06782608 76.8139144 -19.3944387 73.69834328 -22.125 70.75390625 C-23.07354858 69.78625587 -23.07354858 69.78625587 -24.04125977 68.79905701 C-26.04966281 66.74040345 -28.02448272 64.65268286 -30 62.5625 C-31.35857444 61.15876923 -32.71923086 59.75705028 -34.08203125 58.35742188 C-37.41260056 54.92779631 -40.71339685 51.47175944 -44 48 C-42.36809981 43.82198388 -39.29694558 41.0605633 -36.15234375 37.9921875 C-35.58044815 37.42549347 -35.00855255 36.85879944 -34.41932678 36.27493286 C-32.59674775 34.47012728 -30.76760926 32.67216682 -28.9375 30.875 C-27.10471379 29.06982685 -25.27340471 27.26321611 -23.44496155 25.4536438 C-22.30807969 24.32902464 -21.16853542 23.20708937 -20.02610779 22.08810425 C-17.15256386 19.31969812 -17.15256386 19.31969812 -15 16 C-14.34 16 -13.68 16 -13 16 C-13 15.34 -13 14.68 -13 14 C-12.34 14 -11.68 14 -11 14 C-11 13.34 -11 12.68 -11 12 C-9.35546875 10.44921875 -9.35546875 10.44921875 -7.1875 8.6875 C-4.06609608 6.04673704 -1.80988139 3.73288036 0 0 Z " fill="#AED4FE" transform="translate(332,217)"/>
<path d="M0 0 C3.31613882 1.44580966 5.49185728 3.24829792 8.03417969 5.80712891 C8.81468689 6.58778717 9.59519409 7.36844543 10.39935303 8.17276001 C11.23178528 9.01551483 12.06421753 9.85826965 12.921875 10.7265625 C13.78186096 11.58937836 14.64184692 12.45219421 15.52789307 13.34115601 C18.2733231 16.09778029 21.0117169 18.86127799 23.75 21.625 C25.61021783 23.49524857 27.47088946 25.36504589 29.33203125 27.234375 C33.89329945 31.8176936 38.44881011 36.40667478 43 41 C29 55 15 69 1 83 C-3.37290782 78.72629435 -7.73226048 74.43936813 -12.07983398 70.13989258 C-13.55929464 68.68049241 -15.04233272 67.22470931 -16.52905273 65.77270508 C-18.67091435 63.67960362 -20.79938485 61.57364087 -22.92578125 59.46484375 C-23.9196862 58.50190651 -23.9196862 58.50190651 -24.93367004 57.51951599 C-29.78083884 52.67470762 -33.39170533 47.72348512 -33.5 40.5625 C-33.06224889 32.35234248 -26.99880831 26.5577182 -21.38671875 21.09375 C-20.77230423 20.48358032 -20.15788971 19.87341064 -19.52485657 19.24475098 C-17.58607885 17.3225899 -15.63707319 15.41120432 -13.6875 13.5 C-12.36063346 12.18820228 -11.03445492 10.87570826 -9.70898438 9.5625 C-6.48054538 6.36690412 -3.24289775 3.1809194 0 0 Z " fill="#12476F" transform="translate(199,177)"/>
<path d="M0 0 C8.31342583 7.96514539 10.07227427 22.45631454 10.35571289 33.43774414 C10.41869978 42.00954223 9.86434654 49.84676162 7 58 C6.59007812 59.16917969 6.18015625 60.33835938 5.7578125 61.54296875 C2.43080743 70.56919257 2.43080743 70.56919257 0 73 C-1.23697917 71.47005208 -2.47395833 69.94010417 -3.7109375 68.41015625 C-4.9666391 66.86733563 -4.9666391 66.86733563 -7 66 C-7 65.34 -7 64.68 -7 64 C-7.66 64 -8.32 64 -9 64 C-9 63.34 -9 62.68 -9 62 C-9.66 62 -10.32 62 -11 62 C-12.41235352 60.56640625 -12.41235352 60.56640625 -14.06640625 58.5625 C-18.12214332 53.79277655 -22.4878254 49.40010667 -26.9375 45 C-27.71673828 44.22527344 -28.49597656 43.45054687 -29.29882812 42.65234375 C-31.1969242 40.76589243 -33.09733149 38.88183755 -35 37 C-33.63886987 33.95418514 -32.10669904 31.86160974 -29.74365234 29.51660156 C-29.08311859 28.85621887 -28.42258484 28.19583618 -27.74203491 27.51544189 C-27.03052277 26.81425232 -26.31901062 26.11306274 -25.5859375 25.390625 C-24.49147812 24.30041046 -24.49147812 24.30041046 -23.37490845 23.18817139 C-21.0462612 20.87070802 -18.71075174 18.5603005 -16.375 16.25 C-14.79381347 14.67884556 -13.21307875 13.10723629 -11.6328125 11.53515625 C-7.7604331 7.68481347 -3.88239829 3.84023883 0 0 Z " fill="#C5DCFE" transform="translate(369,182)"/>
</svg>
